<?xml version="1.0" encoding="UTF-8"?>
<svg width="1908px" height="380px" viewBox="0 0 1908 380" version="1.1" xmlns="http://www.w3.org/2000/svg" xmlns:xlink="http://www.w3.org/1999/xlink">
    <title>Page-1_1_@2x</title>
    <g id="Page-1" stroke="none" stroke-width="1" fill="none" fill-rule="evenodd">
        <g id="Black-with-color-Code-brew" transform="translate(-82.000000, -71.000000)" fill-rule="nonzero">
            <g id="Page-1_1_" transform="translate(82.000000, 71.000000)">
                <g id="logocbl_1_" transform="translate(-0.000000, 0.000000)">
                    <polygon id="Path_27_" fill="#151011" points="1077.2165 288 1085.6165 288 1085.6165 344 1117.1165 344 1117.1165 351.7 1077.2165 351.7"></polygon>
                    <path d="M1162.4165,288 L1171.6165,288 L1194.6165,351 L1185.4165,351 L1178.5165,331.8 L1153.9165,331.8 L1147.0165,351 L1138.6165,351 L1162.4165,288 Z M1176.2165,325.6 L1167.0165,298 L1157.0165,325.6 L1176.2165,325.6 Z" id="Shape_9_" fill="#151011"></path>
                    <path d="M1220.0165,288 L1247.6165,288 C1253.7165,287.2 1259.9165,289.5 1263.7165,294.9 C1265.2165,297.2 1266.8165,301 1266.8165,304.1 C1266.8165,307.9 1266.0165,311 1263.7165,314.1 C1262.2165,315.6 1260.6165,317.2 1258.3165,317.9 C1260.6165,318.7 1263.7165,320.2 1265.2165,321.7 C1268.3165,324.8 1269.8165,328.6 1269.8165,333.2 C1269.8165,337 1268.3165,340.9 1266.0165,343.9 C1261.4165,349.3 1254.5165,352.3 1247.6165,351.6 L1220.7165,351.6 L1220.7165,287.9 L1220.0165,287.9 L1220.0165,288 Z M1244.6165,314.8 C1247.7165,314.8 1250.7165,314.8 1253.0165,313.3 C1256.1165,311.8 1258.4165,308.7 1257.6165,304.9 C1257.6165,301.1 1256.1165,298 1252.2165,296.5 C1249.1165,295.7 1246.8165,295 1243.8165,295 L1228.4165,295 L1228.4165,314.2 L1244.6165,314.8 L1244.6165,314.8 Z M1246.9165,344 C1251.5165,344.8 1255.3165,342.5 1258.4165,339.4 C1259.9165,337.1 1260.7165,334.8 1260.7165,332.5 C1260.7165,328.7 1258.4165,324.8 1254.6165,323.3 C1251.5165,322.5 1248.5165,321.8 1246.2165,321.8 L1228.5165,321.8 L1228.5165,344.1 L1246.9165,344.1 L1246.9165,344 Z" id="Shape_8_" fill="#151011"></path>
                    <path d="M1302.2165,331 C1302.2165,334.1 1303.0165,337.1 1304.5165,339.4 C1307.6165,344 1313.7165,346.3 1319.1165,345.5 C1322.2165,345.5 1324.5165,344.7 1327.5165,344 C1332.1165,343.2 1335.2165,339.4 1335.2165,334.8 C1335.2165,331.7 1334.4165,328.7 1332.1165,327.1 C1329.0165,325.6 1326.0165,324 1322.1165,323.3 L1313.7165,321.8 C1309.9165,321 1306.0165,319.5 1302.2165,318 C1298.4165,315.7 1296.1165,311.1 1296.1165,306.5 C1296.1165,301.1 1297.6165,296.5 1301.5165,292.7 C1306.1165,288.9 1311.5165,286.6 1317.6165,287.3 C1323.7165,287.3 1329.1165,288.8 1333.7165,291.9 C1338.3165,295.7 1340.6165,301.1 1340.6165,307.3 L1332.9165,307.3 C1332.9165,304.2 1332.1165,301.9 1329.8165,299.6 C1326.7165,295.8 1322.1165,294.2 1317.5165,294.2 C1313.7165,294.2 1309.8165,295 1306.8165,297.3 C1304.5165,299.6 1303.7165,301.9 1303.7165,305 C1303.7165,308.1 1305.2165,310.4 1307.5165,311.9 C1311.3165,313.4 1315.2165,315 1318.2165,315 L1326.6165,317.3 C1329.7165,318.1 1333.5165,319.6 1335.8165,321.1 C1339.6165,324.2 1341.9165,328.8 1341.9165,334.2 C1342.7165,340.3 1339.6165,346.5 1334.2165,349.6 C1328.8165,352.7 1322.7165,354.2 1316.5165,354.2 C1309.6165,354.2 1303.4165,352.7 1298.8165,348.1 C1294.2165,344.3 1291.9165,338.1 1292.7165,332 L1302.2165,331 Z" id="Path_26_" fill="#151011"></path>
                    <polygon id="Path_25_" fill="#7FC21E" points="203.516496 223.5 146.716496 161.3 203.516496 99.1 214.216496 109.1 166.616496 161.3 214.216496 213.5"></polygon>
                    <polygon id="Path_24_" fill="#7FC21E" points="247.216496 223.5 236.516496 213.5 284.916496 161.3 236.516496 109.1 247.216496 99.1 304.816496 161.3"></polygon>
                    <path d="M0.0164958735,162.1 L0.0164958735,162.1 C-0.783504126,126 27.6164959,96.1 63.0164959,95.3 C63.8164959,95.3 64.5164959,95.3 65.3164959,95.3 C84.5164959,94.5 102.216496,102.2 115.216496,116 L105.216496,126.7 C94.5164959,115.2 79.9164959,109 64.5164959,109 C36.9164959,109 14.6164959,132 14.6164959,160.4 C14.6164959,161.2 14.6164959,161.2 14.6164959,161.9 L14.6164959,161.9 C13.1164959,189.5 34.6164959,213.3 63.0164959,214.9 C63.8164959,214.9 63.8164959,214.9 64.5164959,214.9 C80.6164959,214.9 95.2164959,208 106.016496,196.5 L115.216496,206.5 C102.116496,221.1 83.7164959,229.5 63.8164959,228.8 C28.5164959,228.8 0.116495874,199.6 0.116495874,164.3 C0.0164958735,162.8 0.0164958735,162.1 0.0164958735,162.1 Z" id="Path_23_" fill="#151011"></path>
                    <path d="M350.916496,97.6 L395.416496,97.6 C436.116496,97.6 463.716496,125.2 463.716496,161.3 L463.716496,161.3 C463.716496,197.4 436.116496,225.8 395.416496,225.8 L350.916496,225.8 L350.916496,97.6 Z M364.716496,110.6 L364.716496,211.9 L394.616496,211.9 C426.816496,211.9 447.616496,189.6 447.616496,161.2 L447.616496,161.2 C447.616496,132.8 426.916496,110.5 394.616496,110.5 L364.716496,110.5 L364.716496,110.6 Z" id="Shape_7_" fill="#151011"></path>
                    <polygon id="Path_22_" fill="#151011" points="512.916496 97.6 605.816496 97.6 605.816496 110.6 526.716496 110.6 526.716496 154.4 596.616496 154.4 596.616496 167.4 526.716496 167.4 526.716496 212.7 606.616496 212.7 606.616496 225.8 512.916496 225.8"></polygon>
                    <path d="M727.116496,97.6 L781.616496,97.6 C793.916496,96.8 806.216496,100.7 815.416496,109.1 C820.816496,114.5 823.816496,122.2 823.816496,129.8 L823.816496,129.8 C823.816496,142.9 816.116496,155.1 803.116496,159.7 C818.516496,164.3 830.716496,172.8 830.716496,190.4 L830.716496,190.4 C830.716496,212.7 812.316496,225.7 783.916496,225.7 L727.116496,225.7 L727.116496,97.6 L727.116496,97.6 Z M809.216496,131.3 C809.216496,118.2 799.216496,110.6 780.816496,110.6 L741.616496,110.6 L741.616496,155.1 L780.016496,155.1 C797.716496,154.4 809.216496,146.7 809.216496,131.3 L809.216496,131.3 Z M782.416496,167.4 L741.716496,167.4 L741.716496,212.7 L784.716496,212.7 C803.916496,212.7 816.216496,204.3 816.216496,189.7 L816.216496,189.7 C816.216496,175.1 804.616496,167.4 782.416496,167.4 Z" id="Shape_6_" fill="#151011"></path>
                    <path d="M878.316496,97.6 L933.616496,97.6 C946.716496,96.8 960.516496,101.4 970.516496,110.7 C977.416496,117.6 980.516496,126.8 980.516496,136 L980.516496,136 C980.516496,157.5 965.916496,169.8 945.216496,173.6 L984.416496,225.8 L966.716496,225.8 L929.116496,175.9 L892.216496,175.9 L892.216496,225.8 L877.616496,225.8 L878.316496,97.6 Z M932.116496,162.8 C951.316496,162.8 965.116496,152.8 965.116496,136.7 L965.116496,136.7 C965.116496,120.6 952.816496,111.4 932.116496,111.4 L892.216496,111.4 L892.216496,163.6 L932.116496,162.8 Z" id="Shape_5_" fill="#151011"></path>
                    <polygon id="Path_21_" fill="#151011" points="1029.6165 97.6 1122.5165 97.6 1122.5165 110.6 1044.2165 110.6 1044.2165 154.4 1114.1165 154.4 1114.1165 167.4 1044.2165 167.4 1044.2165 212.7 1123.3165 212.7 1123.3165 225.8 1028.8165 225.8 1028.8165 97.6"></polygon>
                    <polygon id="Path_20_" fill="#151011" points="1160.9165 97.6 1177.0165 97.6 1213.9165 204.3 1249.2165 96.8 1261.5165 96.8 1296.8165 204.3 1333.6165 97.6 1349.0165 97.6 1302.9165 226.6 1289.9165 226.6 1254.6165 122.1 1219.2165 226.6 1207.0165 226.6"></polygon>
                    <path d="M1593.9165,103.7 L1585.5165,94.5 C1587.8165,93 1605.5165,74.5 1588.6165,55.3 C1574.0165,39.2 1576.3165,13.8 1592.4165,0 L1592.4165,0 L1600.8165,8.4 L1597.0165,3.8 L1600.8165,8.4 C1598.5165,10.7 1580.8165,28.4 1597.7165,47.6 C1612.3165,64.6 1610.8165,89.1 1593.9165,103.7 L1593.9165,103.7 Z" id="Path_19_" fill="#070606"></path>
                    <path d="M1646.1165,112.9 L1637.7165,103.7 C1640.0165,101.4 1657.7165,83.7 1640.8165,64.5 C1626.2165,48.4 1628.5165,23 1644.6165,9.2 L1644.6165,9.2 L1653.0165,17.6 L1649.2165,13 L1653.0165,17.6 C1650.7165,19.9 1633.0165,37.6 1649.9165,56.8 C1664.6165,73.8 1662.3165,98.3 1646.1165,112.9 L1646.1165,112.9 Z" id="Path_18_" fill="#070606"></path>
                    <path d="M1719.8165,188.2 L1719.8165,179.8 C1708.3165,182.1 1696.8165,183.6 1684.5165,183.6 C1663.8165,183.6 1643.0165,180.5 1623.1165,175.2 C1583.9165,165.2 1560.9165,159.8 1545.6165,159.8 C1537.9165,159 1529.5165,161.3 1523.3165,166.7 C1520.2165,169 1518.7165,172.8 1518.7165,177.4 L1518.7165,189.7 C1518.7165,199.7 1515.6165,209.7 1510.3165,218.1 C1508.0165,222.7 1508.0165,227.3 1511.1165,231.9 C1516.5165,240.3 1519.5165,250.3 1520.3165,260.3 L1520.3165,324.8 C1520.3165,330.2 1521.1165,336.3 1522.6165,341.7 C1524.9165,346.3 1529.5165,349.4 1534.9165,349.4 L1704.6165,349.4 C1710.0165,349.4 1714.6165,347.1 1716.9165,342.5 C1719.2165,336.4 1720.7165,330.2 1720.7165,323.3 L1720.7165,258.8 C1720.7165,248.8 1723.8165,238.8 1729.1165,230.4 C1731.4165,226.6 1732.2165,221.2 1729.9165,216.6 C1722.9165,208.1 1719.8165,198.1 1719.8165,188.2 Z" id="Path_17_" fill="#7FC21F"></path>
                    <path d="M1521.7165,79.1 C1504.8165,89.8 1494.8165,109 1496.4165,129 L1496.4165,190.4 C1496.4165,203.5 1481.8165,218.8 1476.4165,224.2 C1481.8165,228.8 1497.1165,244.2 1497.1165,257.2 L1497.1165,318.6 C1497.1165,346.2 1506.3165,359.3 1522.4165,369.3 L1517.8165,379.3 C1488.6165,362.4 1482.5165,349.4 1482.5165,298.7 L1482.5165,259.5 C1482.5165,245.7 1465.6165,231.1 1457.9165,224.2 C1465.6165,218.1 1481.7165,201.9 1481.7165,188.1 L1481.7165,147.4 C1481.7165,99 1488.6165,84.4 1517.0165,68.3 L1521.7165,79.1 Z" id="Path_16_" fill="#070606"></path>
                    <path d="M1722.1165,68.4 C1750.5165,85.3 1757.4165,99.1 1757.4165,147.5 L1757.4165,187.4 C1757.4165,201.2 1773.5165,217.3 1781.2165,223.5 C1773.5165,230.4 1756.6165,245 1756.6165,258.8 L1756.6165,298 C1756.6165,348.7 1750.5165,362.5 1721.3165,378.6 L1716.7165,368.6 C1732.1165,358.6 1742.0165,345.6 1742.0165,317.9 L1742.0165,256.5 C1742.0165,242.7 1757.4165,228.1 1762.7165,222.7 C1757.3165,217.3 1742.7165,202.7 1742.7165,188.9 L1742.7165,129 C1742.7165,99.1 1729.6165,87.5 1717.4165,79.1 L1722.1165,68.4 Z" id="Path_15_" fill="#070606"></path>
                    <polygon id="Path_14_" fill="#070606" points="1815.8165 132.1 1907.9165 224.3 1907.9165 224.3 1815.8165 316.4 1805.8165 306.4 1888.7165 224.3 1805.8165 142.1"></polygon>
                </g>
            </g>
        </g>
    </g>
</svg>