<?xml version="1.0" encoding="utf-8"?>
<!-- Generator: Adobe Illustrator 22.0.1, SVG Export Plug-In . SVG Version: 6.00 Build 0)  -->
<svg version="1.1" id="Warstwa_1" xmlns="http://www.w3.org/2000/svg" xmlns:xlink="http://www.w3.org/1999/xlink" x="0px" y="0px"
	 viewBox="0 0 50 50" style="enable-background:new 0 0 50 50;" xml:space="preserve">
<g>
	<path style="fill:none;stroke:#3A547A;stroke-width:2;stroke-miterlimit:10;" d="M20.1,34c0-2.2,1.8-4,4-4c2.2,0,4,1.8,4,4
		s-1.8,4-4,4C21.9,38,20.1,36.2,20.1,34z"/>
	<path style="fill:none;stroke:#3A547A;stroke-width:2;stroke-miterlimit:10;" d="M31,48v-2.8c0-2.6-4.5-4-7-4c-2.5,0-7,1.3-7,4V48"
		/>
	<path style="fill:none;stroke:#3A547A;stroke-width:2;stroke-miterlimit:10;" d="M32.1,34c0-2.2,1.8-4,4-4c2.2,0,4,1.8,4,4
		s-1.8,4-4,4C33.9,38,32.1,36.2,32.1,34z"/>
	<path style="fill:none;stroke:#3A547A;stroke-width:2;stroke-miterlimit:10;" d="M43,48v-2.8c0-2.6-4.5-4-7-4c-0.8,0-1.9,0.2-3,0.5
		"/>
	<path style="fill:none;stroke:#3A547A;stroke-width:2;stroke-miterlimit:10;" d="M16,34c0-2.2-1.8-4-4-4c-2.2,0-4,1.8-4,4
		s1.8,4,4,4C14.2,38,16,36.2,16,34z"/>
	<path style="fill:none;stroke:#3A547A;stroke-width:2;stroke-miterlimit:10;" d="M5,48v-2.8c0-2.6,4.6-4,7-4c0.8,0,1.9,0.2,3,0.5"
		/>
	<path style="fill:none;stroke:#3A547A;stroke-width:2;stroke-miterlimit:10;" d="M24,2h18c2.2,0,4,1.8,4,4v10c0,2.2-1.8,4-4,4h-4v5
		c0,1-1.2,1.4-1.8,0.6L32,20h-5l-2.1,6.2c-0.3,0.9-1.6,0.9-1.9,0L21,20h-5l-4.2,5.6C11.2,26.4,10,26,10,25v-5H7c-2.2,0-4-1.8-4-4V6
		c0-2.2,1.8-4,4-4H24z"/>
</g>
</svg>
