<?xml version="1.0" encoding="utf-8"?>
<!-- Generator: Adobe Illustrator 22.0.1, SVG Export Plug-In . SVG Version: 6.00 Build 0)  -->
<svg version="1.1" id="Warstwa_1" xmlns="http://www.w3.org/2000/svg" xmlns:xlink="http://www.w3.org/1999/xlink" x="0px" y="0px"
	 viewBox="0 0 50 50" style="enable-background:new 0 0 50 50;" xml:space="preserve">
<g>
	<path style="fill:none;stroke:#3A547A;stroke-width:2;stroke-miterlimit:10;" d="M47,38H3c-0.6,0-1-0.4-1-1V7c0-0.6,0.4-1,1-1h44
		c0.6,0,1,0.4,1,1v30C48,37.6,47.6,38,47,38z"/>
	<rect x="6" y="10" style="fill:none;stroke:#3A547A;stroke-width:2;stroke-miterlimit:10;" width="38" height="20"/>
	<line style="fill:none;stroke:#3A547A;stroke-width:2;stroke-miterlimit:10;" x1="19" y1="44" x2="19" y2="40"/>
	<line style="fill:none;stroke:#3A547A;stroke-width:2;stroke-miterlimit:10;" x1="31" y1="40" x2="31" y2="44"/>
	<line style="fill:none;stroke:#3A547A;stroke-width:2;stroke-miterlimit:10;" x1="36" y1="44" x2="14" y2="44"/>
	<line style="fill:none;stroke:#3A547A;stroke-width:2;stroke-miterlimit:10;" x1="6" y1="34" x2="10" y2="34"/>
	<line style="fill:none;stroke:#3A547A;stroke-width:2;stroke-miterlimit:10;" x1="14" y1="34" x2="44" y2="34"/>
	<polygon style="fill:none;stroke:#3A547A;stroke-width:2;stroke-linejoin:round;stroke-miterlimit:10;" points="21,15 21,25 31,20 
			"/>
	<line style="fill:none;stroke:#3A547A;stroke-width:2;stroke-miterlimit:10;" x1="12" y1="32" x2="12" y2="36"/>
</g>
</svg>
