<?xml version="1.0" encoding="utf-8"?>
<!-- Generator: Adobe Illustrator 22.0.1, SVG Export Plug-In . SVG Version: 6.00 Build 0)  -->
<svg version="1.1" id="Warstwa_1" xmlns="http://www.w3.org/2000/svg" xmlns:xlink="http://www.w3.org/1999/xlink" x="0px" y="0px"
	 viewBox="0 0 50 50" style="enable-background:new 0 0 50 50;" xml:space="preserve">
<g>
	<path style="fill:none;stroke:#3A547A;stroke-width:2;stroke-miterlimit:10;" d="M32,43c0,0,0-2,0-3c-2.5-1.9-3.2-4.4-4-6s-2-4-2-4
		c0-1,2.1-2,3.1-1c1,1,2,2,2,2h1V20c0-1.1,0.9-2,2-2h0c1.1,0,2,0.9,2,2v7l7,1.4c1.7,0.3,3,1.6,3,3.6v5c0,1.1-1,2-1,3v3H32z"/>
	<rect x="30" y="43" style="fill:none;stroke:#3A547A;stroke-width:2;stroke-miterlimit:10;" width="16" height="5"/>
	<polyline style="fill:none;stroke:#3A547A;stroke-width:2;stroke-miterlimit:10;" points="27,46 3,46 3,2 45,2 45,25 	"/>
	<line style="fill:none;stroke:#3A547A;stroke-width:2;stroke-miterlimit:10;" x1="3" y1="8" x2="45" y2="8"/>
	<line style="fill:none;stroke:#3A547A;stroke-width:2;stroke-miterlimit:10;" x1="6" y1="5" x2="8" y2="5"/>
	<line style="fill:none;stroke:#3A547A;stroke-width:2;stroke-miterlimit:10;" x1="10" y1="5" x2="12" y2="5"/>
	<polyline style="fill:none;stroke:#3A547A;stroke-width:2;stroke-miterlimit:10;" points="20,20 20,24 9,24 9,14 17,14 	"/>
	<rect x="9" y="30" style="fill:none;stroke:#3A547A;stroke-width:2;stroke-miterlimit:10;" width="11" height="10"/>
	<polyline style="fill:none;stroke:#3A547A;stroke-width:2;stroke-miterlimit:10;" points="12,18 15,21 21,14 	"/>
	<line style="fill:none;stroke:#3A547A;stroke-width:2;stroke-miterlimit:10;" x1="25" y1="15" x2="41" y2="15"/>
	<line style="fill:none;stroke:#3A547A;stroke-width:2;stroke-miterlimit:10;" x1="25" y1="19" x2="29" y2="19"/>
	<line style="fill:none;stroke:#3A547A;stroke-width:2;stroke-miterlimit:10;" x1="25" y1="23" x2="29" y2="23"/>
</g>
</svg>
