<?xml version="1.0" encoding="utf-8"?>
<!-- Generator: Adobe Illustrator 22.0.1, SVG Export Plug-In . SVG Version: 6.00 Build 0)  -->
<svg version="1.1" id="Warstwa_1" xmlns="http://www.w3.org/2000/svg" xmlns:xlink="http://www.w3.org/1999/xlink" x="0px" y="0px"
	 viewBox="0 0 100 100" enable-background="new 0 0 100 100" xml:space="preserve">
<g>
	<rect x="42" y="28" fill="none" stroke="#35EDCA" stroke-width="2" stroke-miterlimit="10" width="30" height="29"/>
	<line fill="none" stroke="#35EDCA" stroke-width="2" stroke-miterlimit="10" x1="42" y1="34" x2="72" y2="34"/>
	<line fill="none" stroke="#35EDCA" stroke-width="2" stroke-miterlimit="10" x1="45" y1="31" x2="47" y2="31"/>
	<line fill="none" stroke="#35EDCA" stroke-width="2" stroke-miterlimit="10" x1="49" y1="31" x2="51" y2="31"/>
	<line fill="none" stroke="#35EDCA" stroke-width="2" stroke-miterlimit="10" x1="53" y1="31" x2="55" y2="31"/>
	<polyline fill="none" stroke="#35EDCA" stroke-width="2" stroke-miterlimit="10" points="59,59 59,72 29,72 29,43 40,43 	"/>
	<line fill="none" stroke="#35EDCA" stroke-width="2" stroke-miterlimit="10" x1="29" y1="49" x2="40" y2="49"/>
	<line fill="none" stroke="#35EDCA" stroke-width="2" stroke-miterlimit="10" x1="32" y1="46" x2="34" y2="46"/>
	<line fill="none" stroke="#35EDCA" stroke-width="2" stroke-miterlimit="10" x1="36" y1="46" x2="38" y2="46"/>
	<path fill="none" stroke="#BBFFF2" stroke-width="2" stroke-miterlimit="10" d="M68,61v6c0,1.7-1.3,3-3,3h-3"/>
	<polyline fill="none" stroke="#BBFFF2" stroke-width="2" stroke-miterlimit="10" points="71,64 68,61 65,64 	"/>
	<path fill="none" stroke="#BBFFF2" stroke-width="2" stroke-miterlimit="10" d="M33,39v-6c0-1.7,1.3-3,3-3h3"/>
	<polyline fill="none" stroke="#BBFFF2" stroke-width="2" stroke-miterlimit="10" points="30,36 33,39 36,36 	"/>
</g>
</svg>
