<?xml version="1.0" encoding="utf-8"?>
<!-- Generator: Adobe Illustrator 22.0.1, SVG Export Plug-In . SVG Version: 6.00 Build 0)  -->
<svg version="1.1" id="Warstwa_1" xmlns="http://www.w3.org/2000/svg" xmlns:xlink="http://www.w3.org/1999/xlink" x="0px" y="0px"
	 viewBox="0 0 100 100" enable-background="new 0 0 100 100" xml:space="preserve">
<g>
	<path fill="none" stroke="#35EDCA" stroke-width="2" stroke-miterlimit="10" d="M60.6,53c-1,3.7-3.9,6.5-7.6,7.6 M53,39.4
		c3.7,1,6.6,3.9,7.6,7.6 M39.4,47c1-3.7,3.9-6.5,7.6-7.6 M47,60.6c-3.7-1-6.6-3.9-7.6-7.6"/>
	<path fill="none" stroke="#35EDCA" stroke-width="2" stroke-miterlimit="10" d="M69.5,52.8c-1.2,8.6-8.1,15.5-16.7,16.7 M52.8,30.5
		c8.6,1.2,15.5,8.1,16.7,16.7 M30.5,47.2c1.2-8.6,8.1-15.5,16.7-16.7 M47.2,69.5c-8.6-1.2-15.5-8.1-16.7-16.7"/>
	<path fill="none" stroke="#35EDCA" stroke-width="2" stroke-miterlimit="10" d="M53,61c0-1.1-0.9-2-2-2h-2c-1.1,0-2,0.9-2,2v9
		c0,1.1,0.9,2,2,2h2c1.1,0,2-0.9,2-2V61z"/>
	<path fill="none" stroke="#35EDCA" stroke-width="2" stroke-miterlimit="10" d="M72,49c0-1.1-0.9-2-2-2h-9c-1.1,0-2,0.9-2,2v2
		c0,1.1,0.9,2,2,2h9c1.1,0,2-0.9,2-2V49z"/>
	<path fill="none" stroke="#35EDCA" stroke-width="2" stroke-miterlimit="10" d="M41,49c0-1.1-0.9-2-2-2h-9c-1.1,0-2,0.9-2,2v2
		c0,1.1,0.9,2,2,2h9c1.1,0,2-0.9,2-2V49z"/>
	<path fill="none" stroke="#35EDCA" stroke-width="2" stroke-miterlimit="10" d="M53,30c0-1.1-0.9-2-2-2h-2c-1.1,0-2,0.9-2,2v9
		c0,1.1,0.9,2,2,2h2c1.1,0,2-0.9,2-2V30z"/>
	<path fill="none" stroke="#BBFFF2" stroke-width="2" stroke-miterlimit="10" d="M29,39v-3c0-3.9,3.1-7,7-7h3"/>
	<path fill="none" stroke="#BBFFF2" stroke-width="2" stroke-miterlimit="10" d="M71,39v-3c0-3.9-3.1-7-7-7h-3"/>
	<path fill="none" stroke="#BBFFF2" stroke-width="2" stroke-miterlimit="10" d="M29,61v3c0,3.9,3.1,7,7,7h3"/>
	<path fill="none" stroke="#BBFFF2" stroke-width="2" stroke-miterlimit="10" d="M71,61v3c0,3.9-3.1,7-7,7h-3"/>
</g>
</svg>
