<?xml version="1.0" encoding="utf-8"?>
<!-- Generator: Adobe Illustrator 22.0.1, SVG Export Plug-In . SVG Version: 6.00 Build 0)  -->
<svg version="1.1" id="Warstwa_1" xmlns="http://www.w3.org/2000/svg" xmlns:xlink="http://www.w3.org/1999/xlink" x="0px" y="0px"
	 viewBox="0 0 100 100" enable-background="new 0 0 100 100" xml:space="preserve">
<g>
	<path fill="none" stroke="#35EDCA" stroke-width="2" stroke-miterlimit="10" d="M68,32h4c0.6,0,1,0.4,1,1v32c0,0.6-0.4,1-1,1H28
		c-0.6,0-1-0.4-1-1V33c0-0.6,0.4-1,1-1h4"/>
	<line fill="none" stroke="#35EDCA" stroke-width="2" stroke-miterlimit="10" x1="55" y1="68" x2="55" y2="72"/>
	<line fill="none" stroke="#35EDCA" stroke-width="2" stroke-miterlimit="10" x1="46" y1="72" x2="46" y2="68"/>
	<line fill="none" stroke="#35EDCA" stroke-width="2" stroke-miterlimit="10" x1="59" y1="72" x2="42" y2="72"/>
	<line fill="none" stroke="#35EDCA" stroke-width="2" stroke-miterlimit="10" x1="27" y1="60" x2="73" y2="60"/>
	<line fill="none" stroke="#35EDCA" stroke-width="2" stroke-miterlimit="10" x1="49" y1="63" x2="52" y2="63"/>
	<polyline fill="none" stroke="#BBFFF2" stroke-width="2" stroke-miterlimit="10" points="35,57 35,28 65,28 65,57 	"/>
	<line fill="none" stroke="#BBFFF2" stroke-width="2" stroke-miterlimit="10" x1="35" y1="34" x2="65" y2="34"/>
	<line fill="none" stroke="#BBFFF2" stroke-width="2" stroke-miterlimit="10" x1="38" y1="31" x2="40" y2="31"/>
	<line fill="none" stroke="#BBFFF2" stroke-width="2" stroke-miterlimit="10" x1="42" y1="31" x2="44" y2="31"/>
	<line fill="none" stroke="#BBFFF2" stroke-width="2" stroke-miterlimit="10" x1="46" y1="31" x2="48" y2="31"/>
</g>
</svg>
