<?xml version="1.0" encoding="utf-8"?>
<!-- Generator: Adobe Illustrator 22.0.1, SVG Export Plug-In . SVG Version: 6.00 Build 0)  -->
<svg version="1.1" id="Warstwa_1" xmlns="http://www.w3.org/2000/svg" xmlns:xlink="http://www.w3.org/1999/xlink" x="0px" y="0px"
	 viewBox="0 0 100 100" enable-background="new 0 0 100 100" xml:space="preserve">
<g>
	<path fill="none" stroke="#B2F2E7" stroke-width="2" stroke-miterlimit="10" d="M44,74v-2c0,0,3-2.2,3-5v-1"/>
	<path fill="none" stroke="#B2F2E7" stroke-width="2" stroke-miterlimit="10" d="M36,53l-4,3.2c-1.4,1.3-2,2-2,4v7.6l0,6.2"/>
	<path fill="none" stroke="#B2F2E7" stroke-width="2" stroke-miterlimit="10" d="M56,26v2c0,0-3,2.2-3,5v1"/>
	<path fill="none" stroke="#B2F2E7" stroke-width="2" stroke-miterlimit="10" d="M64,47l4-3.2c1.4-1.3,2-2,2-4v-7.6V26"/>
	<polyline fill="none" stroke="#35EDCA" stroke-width="2" stroke-miterlimit="10" points="36,62 36,38 40,34 58,34 	"/>
	<polyline fill="none" stroke="#35EDCA" stroke-width="2" stroke-miterlimit="10" points="64,38 64,66 42,66 	"/>
	<line fill="none" stroke="#35EDCA" stroke-width="2" stroke-miterlimit="10" x1="42" y1="45" x2="52" y2="45"/>
	<line fill="none" stroke="#35EDCA" stroke-width="2" stroke-miterlimit="10" x1="42" y1="49" x2="58" y2="49"/>
	<line fill="none" stroke="#35EDCA" stroke-width="2" stroke-miterlimit="10" x1="48" y1="53" x2="58" y2="53"/>
	<line fill="none" stroke="#35EDCA" stroke-width="2" stroke-miterlimit="10" x1="48" y1="57" x2="58" y2="57"/>
	<polyline fill="none" stroke="#35EDCA" stroke-width="2" stroke-miterlimit="10" points="42,36 42,40 38,40 	"/>
	<path fill="none" stroke="#B2F2E7" stroke-width="2" stroke-miterlimit="10" d="M33.7,64c0,0,6.5-6.2,8.3-8s4.3,2.3,2.2,5
		c-1.1,1.1-2.2,2-2.2,2c0,0.4,0,1.6,0,2c0,3.9-3.6,5-4.2,5"/>
	<path fill="none" stroke="#B2F2E7" stroke-width="2" stroke-miterlimit="10" d="M66.3,36c0,0-6.5,6.2-8.3,8s-4.3-2.3-2.2-5
		c1.1-1.1,2.2-2,2.2-2c0-0.4,0-1.6,0-2c0-3.9,3.6-5,4.2-5"/>
</g>
</svg>
