<?xml version="1.0" encoding="utf-8"?>
<!-- Generator: Adobe Illustrator 22.0.1, SVG Export Plug-In . SVG Version: 6.00 Build 0)  -->
<svg version="1.1" id="Warstwa_1" xmlns="http://www.w3.org/2000/svg" xmlns:xlink="http://www.w3.org/1999/xlink" x="0px" y="0px"
	 viewBox="0 0 60 60" style="enable-background:new 0 0 60 60;" xml:space="preserve">
<path style="fill:#35EDCA;" d="M13.9,27L9.8,41.2c-0.7,2.4,0.3,5,2.4,6.3l11.8,7.3c2.3,1.4,5.2,1,7-1l9.5-10.3L13.9,27z"/>
<path style="fill:#BBFFF2;" d="M49.3,28c3.4-6.8,1.1-15.3-5.5-19.4c-6.7-4.1-15.3-2.4-19.9,3.8c-4.9-0.7-10,1.5-12.8,6
	c-3.8,6.1-1.9,14.1,4.2,17.9l16.5,10.2c6.1,3.8,14.1,1.9,17.9-4.2C52.5,37.7,52.1,32.1,49.3,28"/>
</svg>
