<?xml version="1.0" encoding="utf-8"?>
<!-- Generator: Adobe Illustrator 22.0.1, SVG Export Plug-In . SVG Version: 6.00 Build 0)  -->
<svg version="1.1" id="Warstwa_1" xmlns="http://www.w3.org/2000/svg" xmlns:xlink="http://www.w3.org/1999/xlink" x="0px" y="0px"
	 viewBox="0 0 60 60" style="enable-background:new 0 0 60 60;" xml:space="preserve">
<path style="fill:#35EDCA;" d="M4.3,57.6c-1.2,0-2.3-0.5-3.1-1.4c-0.9-1-1.2-2.3-0.9-3.6l3.8-16.8c0.5-2.2,2.7-3.6,4.9-3.1
	c2.2,0.5,3.6,2.7,3.1,4.9L9.5,49l11.6-1c2.2-0.2,4.2,1.5,4.4,3.7c0.2,2.2-1.5,4.2-3.7,4.4L4.6,57.6C4.5,57.6,4.4,57.6,4.3,57.6"/>
<path style="fill:#35EDCA;" d="M51.1,30.4c-0.3,0-0.6,0-0.9-0.1c-2.2-0.5-3.6-2.7-3.1-4.9L49.7,14l-11.6,1c-2.3,0.2-4.2-1.5-4.4-3.7
	c-0.2-2.2,1.5-4.2,3.7-4.4l17.2-1.4c1.3-0.1,2.6,0.4,3.4,1.4c0.9,1,1.2,2.3,0.9,3.6l-3.8,16.8C54.6,29.1,52.9,30.4,51.1,30.4"/>
<path style="fill:#35EDCA;" d="M31.9,44.8c-1.6,0-3.2-1-3.8-2.6l-6.5-16.7c-0.8-2.1,0.2-4.5,2.3-5.3c2.1-0.8,4.5,0.2,5.3,2.3
	l6.5,16.7c0.8,2.1-0.2,4.5-2.3,5.3C32.9,44.7,32.4,44.8,31.9,44.8"/>
<path style="fill:#35EDCA;" d="M4.3,57.6c-1.2,0-2.3-0.5-3.1-1.4c-0.9-1-1.2-2.3-0.9-3.6l3.8-16.8c0.5-2.2,2.7-3.6,4.9-3.1
	c2.2,0.5,3.6,2.7,3.1,4.9L9.5,49l11.6-1c2.2-0.2,4.2,1.5,4.4,3.7c0.2,2.2-1.5,4.2-3.7,4.4L4.6,57.6C4.5,57.6,4.4,57.6,4.3,57.6"/>
<path style="fill:#35EDCA;" d="M51.1,30.4c-0.3,0-0.6,0-0.9-0.1c-2.2-0.5-3.6-2.7-3.1-4.9L49.7,14l-11.6,1c-2.3,0.2-4.2-1.5-4.4-3.7
	c-0.2-2.2,1.5-4.2,3.7-4.4l17.2-1.4c1.3-0.1,2.6,0.4,3.4,1.4c0.9,1,1.2,2.3,0.9,3.6l-3.8,16.8C54.6,29.1,52.9,30.4,51.1,30.4"/>
<path style="fill:#35EDCA;" d="M31.9,44.8c-1.6,0-3.2-1-3.8-2.6l-6.5-16.7c-0.8-2.1,0.2-4.5,2.3-5.3c2.1-0.8,4.5,0.2,5.3,2.3
	l6.5,16.7c0.8,2.1-0.2,4.5-2.3,5.3C32.9,44.7,32.4,44.8,31.9,44.8"/>
<path style="fill:#35EDCA;" d="M4.3,57.6c-1.2,0-2.3-0.5-3.1-1.4c-0.9-1-1.2-2.3-0.9-3.6l3.8-16.8c0.5-2.2,2.7-3.6,4.9-3.1
	c2.2,0.5,3.6,2.7,3.1,4.9L9.5,49l11.6-1c2.2-0.2,4.2,1.5,4.4,3.7c0.2,2.2-1.5,4.2-3.7,4.4L4.6,57.6C4.5,57.6,4.4,57.6,4.3,57.6"/>
<path style="fill:#35EDCA;" d="M51.1,30.4c-0.3,0-0.6,0-0.9-0.1c-2.2-0.5-3.6-2.7-3.1-4.9L49.7,14l-11.6,1c-2.3,0.2-4.2-1.5-4.4-3.7
	c-0.2-2.2,1.5-4.2,3.7-4.4l17.2-1.4c1.3-0.1,2.6,0.4,3.4,1.4c0.9,1,1.2,2.3,0.9,3.6l-3.8,16.8C54.6,29.1,52.9,30.4,51.1,30.4"/>
<path style="fill:#35EDCA;" d="M31.9,44.8c-1.6,0-3.2-1-3.8-2.6l-6.5-16.7c-0.8-2.1,0.2-4.5,2.3-5.3c2.1-0.8,4.5,0.2,5.3,2.3
	l6.5,16.7c0.8,2.1-0.2,4.5-2.3,5.3C32.9,44.7,32.4,44.8,31.9,44.8"/>
</svg>
