<?xml version="1.0" encoding="utf-8"?>
<!-- Generator: Adobe Illustrator 22.0.1, SVG Export Plug-In . SVG Version: 6.00 Build 0)  -->
<svg version="1.1" id="Warstwa_1" xmlns="http://www.w3.org/2000/svg" xmlns:xlink="http://www.w3.org/1999/xlink" x="0px" y="0px"
	 viewBox="0 0 60 60" style="enable-background:new 0 0 60 60;" xml:space="preserve">
<path style="fill:#BBFFF2;" d="M21.9,52.6c-0.3,0-0.6-0.1-0.9-0.2c-1-0.4-1.9-1.1-2.4-2.1L7.4,26.8c-0.5-1-0.5-2.1-0.2-3.2
	c0.4-1,1.1-1.9,2.1-2.4l6.7-3.2c2.1-1,4.6-0.1,5.5,1.9c1,2.1,0.1,4.5-1.9,5.5L16.7,27l7.7,16l2.9-1.4c2.1-1,4.5-0.1,5.5,1.9
	c1,2.1,0.1,4.6-1.9,5.5l-6.7,3.2C23.5,52.6,22.7,52.7,21.9,52.6"/>
<path style="fill:#BBFFF2;" d="M39.9,44c-1.4-0.2-2.6-1-3.2-2.3c-1-2.1-0.1-4.6,1.9-5.5l2.9-1.4l-7.7-16l-2.9,1.4
	c-2.1,1-4.6,0.1-5.5-1.9c-1-2.1-0.1-4.6,1.9-5.5L34,9.5c1-0.5,2.1-0.5,3.2-0.2c1,0.4,1.9,1.1,2.4,2.1l11.3,23.5
	c1,2.1,0.1,4.5-1.9,5.5l-6.7,3.2C41.5,44,40.7,44.1,39.9,44"/>
</svg>
