<?xml version="1.0" encoding="utf-8"?>
<!-- Generator: Adobe Illustrator 22.0.1, SVG Export Plug-In . SVG Version: 6.00 Build 0)  -->
<svg version="1.1" id="Warstwa_1" xmlns="http://www.w3.org/2000/svg" xmlns:xlink="http://www.w3.org/1999/xlink" x="0px" y="0px"
	 viewBox="0 0 60 60" style="enable-background:new 0 0 60 60;" xml:space="preserve">
<path style="fill:#BBFFF2;" d="M17.1,7.7c0.6,0.6,1,1.3,1.2,2.1l1.8,9.3l9.4,1.2c1.7,0.2,3.1,1.5,3.4,3.2l1.8,9.3l9.4,1.2
	c1.7,0.2,3.1,1.5,3.4,3.2l2.3,12.1c0.4,2.2-1,4.3-3.2,4.7c-2.2,0.4-4.3-1-4.7-3.2l-1.8-9.3l-9.4-1.2c-1.7-0.2-3.1-1.5-3.4-3.2
	l-1.8-9.3l-9.4-1.2c-1.7-0.2-3.1-1.5-3.4-3.2l-2.3-12.1c-0.4-2.2,1-4.3,3.2-4.7C15,6.4,16.2,6.9,17.1,7.7"/>
<path style="fill:#BBFFF2;" d="M17.1,7.7c0.6,0.6,1,1.3,1.2,2.1l1.8,9.3l9.4,1.2c1.7,0.2,3.1,1.5,3.4,3.2l1.8,9.3l9.4,1.2
	c1.7,0.2,3.1,1.5,3.4,3.2l2.3,12.1c0.4,2.2-1,4.3-3.2,4.7c-2.2,0.4-4.3-1-4.7-3.2l-1.8-9.3l-9.4-1.2c-1.7-0.2-3.1-1.5-3.4-3.2
	l-1.8-9.3l-9.4-1.2c-1.7-0.2-3.1-1.5-3.4-3.2l-2.3-12.1c-0.4-2.2,1-4.3,3.2-4.7C15,6.4,16.2,6.9,17.1,7.7"/>
</svg>
