<?xml version="1.0" encoding="utf-8"?>
<!-- Generator: Adobe Illustrator 22.0.1, SVG Export Plug-In . SVG Version: 6.00 Build 0)  -->
<svg version="1.1" id="Warstwa_1" xmlns="http://www.w3.org/2000/svg" xmlns:xlink="http://www.w3.org/1999/xlink" x="0px" y="0px"
	 viewBox="0 0 60 60" style="enable-background:new 0 0 60 60;" xml:space="preserve">
<path style="fill:#BBFFF2;" d="M31.5,46.5c-1.7,0-3.4-1.1-3.9-2.9c-0.7-2.2,0.5-4.5,2.6-5.2l11.3-3.7l-7-9.6
	c-1.3-1.9-0.9-4.5,0.9-5.8c1.9-1.3,4.5-0.9,5.8,0.9l10.3,14.2c0.8,1.1,1,2.5,0.6,3.7c-0.4,1.3-1.4,2.3-2.7,2.7l-16.7,5.5
	C32.3,46.4,31.9,46.5,31.5,46.5"/>
<path style="fill:#BBFFF2;" d="M11.3,38.1c-0.9,0-1.8-0.3-2.5-0.9c-1.8-1.4-2.2-4-0.8-5.8l11.1-14.5c1.4-1.8,4-2.2,5.8-0.8
	c1.8,1.4,2.2,4,0.8,5.8L14.6,36.5C13.8,37.6,12.6,38.1,11.3,38.1"/>
</svg>
