<?xml version="1.0" encoding="utf-8"?>
<!-- Generator: Adobe Illustrator 22.0.1, SVG Export Plug-In . SVG Version: 6.00 Build 0)  -->
<svg version="1.1" id="Warstwa_1" xmlns="http://www.w3.org/2000/svg" xmlns:xlink="http://www.w3.org/1999/xlink" x="0px" y="0px"
	 viewBox="0 0 60 60" style="enable-background:new 0 0 60 60;" xml:space="preserve">
<path style="fill:#BBFFF2;" d="M20,44.7L31.5,54c1.9,1.6,4.7,1.7,6.7,0.2l11.4-8c2.2-1.5,3-4.4,1.9-6.9l-5.8-12.8L20,44.7z"/>
<path style="fill:#35EDCA;" d="M48,17.8c-3.1-4.4-8.4-6.2-13.3-5.2c-5-5.8-13.6-7-20-2.5c-6.4,4.5-8.1,13.1-4.3,19.8
	C7.9,34.1,8,39.7,11,44c4.1,5.9,12.3,7.2,18.1,3.1l15.8-11.2C50.8,31.7,52.2,23.6,48,17.8"/>
<path style="fill:#BBFFF2;" d="M20,44.7L31.5,54c1.9,1.6,4.7,1.7,6.7,0.2l11.4-8c2.2-1.5,3-4.4,1.9-6.9l-5.8-12.8L20,44.7z"/>
<path style="fill:#35EDCA;" d="M48,17.8c-3.1-4.4-8.4-6.2-13.3-5.2c-5-5.8-13.6-7-20-2.5c-6.4,4.5-8.1,13.1-4.3,19.8
	C7.9,34.1,8,39.7,11,44c4.1,5.9,12.3,7.2,18.1,3.1l15.8-11.2C50.8,31.7,52.2,23.6,48,17.8"/>
</svg>
