<?xml version="1.0" encoding="utf-8"?>
<!-- Generator: Adobe Illustrator 22.0.1, SVG Export Plug-In . SVG Version: 6.00 Build 0)  -->
<svg version="1.1" id="Warstwa_1" xmlns="http://www.w3.org/2000/svg" xmlns:xlink="http://www.w3.org/1999/xlink" x="0px" y="0px"
	 viewBox="0 0 60 60" style="enable-background:new 0 0 60 60;" xml:space="preserve">
<path style="fill:#35EDCA;" d="M37.8,45.5c-0.9,0-1.9-0.2-2.7-0.7l-16.5-8.9c-1.8-1-2.9-2.8-3-4.9c-0.1-2,1-4,2.7-5l15.9-9.8
	c1.7-1.1,3.9-1.1,5.7-0.2c1.8,1,2.9,2.8,3,4.9l0.5,18.7c0.1,2-1,4-2.7,5C39.8,45.2,38.8,45.5,37.8,45.5 M25.9,30.8l9.5,5.1L35,25.1
	L25.9,30.8z M38.4,23.1L38.4,23.1C38.4,23.1,38.4,23.1,38.4,23.1"/>
</svg>
