<?xml version="1.0" encoding="utf-8"?>
<!-- Generator: Adobe Illustrator 22.0.1, SVG Export Plug-In . SVG Version: 6.00 Build 0)  -->
<svg version="1.1" id="Warstwa_1" xmlns="http://www.w3.org/2000/svg" xmlns:xlink="http://www.w3.org/1999/xlink" x="0px" y="0px"
	 viewBox="0 0 60 60" style="enable-background:new 0 0 60 60;" xml:space="preserve">
<style type="text/css">
	.st0{fill:#35EDCA;}
</style>
<path class="st0" d="M14.9,41.5c-1.2,0-2.3-0.4-3.1-1.2L9.5,38c-1.5-1.5-2.7-3.5-2.7-5.8s0.8-5,2.7-7l1.5-1.5
	c0.8-1.2,1.5-2.3,1.5-3.5l0.4-3.1c0.4-1.9,1.9-3.5,3.5-3.9l1.9-0.4c1.5-0.4,2.7-1.2,3.9-2.3l1.2-1.2c3.5-3.9,9.3-4.3,12.8-1.2
	l2.3,2.3c1.9,1.5,1.9,4.6,0.4,6.2c-1.5,1.9-4.6,1.9-6.2,0.4l-2.3-1.9c0,0-0.4,0-0.4,0.4l-1.2,1.2c-1.9,2.3-4.6,3.9-7.7,4.6
	c-0.4,3.1-1.9,5.8-3.9,8.1l-1.2,1.9c0,0,0,0.4-0.4,0.4l2.3,1.9c1.9,1.5,1.9,4.6,0.4,6.2C17.6,41.1,16.1,41.5,14.9,41.5"/>
<path class="st0" d="M30.4,53.8c-1.9,0-3.9-0.8-5.4-1.9l-2.3-2.3c-1.9-1.5-1.9-4.6-0.4-6.2c1.5-1.9,4.6-1.9,6.2-0.4l2.3,1.9
	c0,0,0.4,0,0.4-0.4l1.2-1.2c1.9-2.3,4.6-3.9,7.7-4.6c0.4-3.1,1.9-5.8,3.9-8.1l1.5-1.5c0,0,0-0.4,0.4-0.4l-3.1-1.9
	c-1.9-1.5-1.9-4.6-0.4-6.2c1.5-1.9,4.6-1.9,6.2-0.4l2.3,2.3c1.9,1.5,2.7,3.9,2.7,6.6c0,2.3-0.8,4.6-2.7,6.2l-1.5,1.5
	c-0.8,1.2-1.5,2.3-1.5,3.5l-0.4,3.1c-0.4,1.9-1.9,3.5-3.5,3.9L42,47.6c-1.5,0.4-2.7,1.2-3.9,2.3l-1.2,1.2
	C35.4,52.7,32.7,53.8,30.4,53.8 M45.5,29.1L45.5,29.1L45.5,29.1z"/>
</svg>
