<?xml version="1.0" encoding="utf-8"?>
<!-- Generator: Adobe Illustrator 22.0.1, SVG Export Plug-In . SVG Version: 6.00 Build 0)  -->
<svg version="1.1" id="Warstwa_1" xmlns="http://www.w3.org/2000/svg" xmlns:xlink="http://www.w3.org/1999/xlink" x="0px" y="0px"
	 viewBox="0 0 112 112" style="enable-background:new 0 0 112 112;" xml:space="preserve">
<style type="text/css">
	.st0{fill:#9AF4E3;}
	.st1{fill:#09BA98;}
	.st2{fill:#35EDCA;}
	.st3{fill:#2BCCAD;}
	.st4{fill:#0C6856;}
	.st5{fill:#BBFFF2;}
	.st6{fill:#FFFFFF;}
</style>
<path class="st0" d="M77.3,75.1c0,2.7-8.9,5-19.9,5s-19.9-2.2-19.9-5c0-2.7,8.9-5,19.9-5C68.4,70.2,77.3,72.4,77.3,75.1"/>
<path class="st1" d="M75.6,58.8c-0.4-0.1-0.8-0.1-1.2-0.1c-1.6,0-3.1,0.5-4.1,1.4c-1.1-0.8-2.5-1.4-4.1-1.4c-1.8,0-3.4,0.7-4.5,1.7
	c-1.1-1-2.7-1.7-4.4-1.7s-3.4,0.7-4.4,1.7c-1.1-1-2.7-1.7-4.4-1.7c-1.5,0-2.8,0.4-3.8,1.2c-1-0.7-2.3-1.2-3.8-1.2
	c-0.4,0-0.8,0-1.2,0.1c0.9,2.6,5.3,14.1,5.3,14.1c0,1.4,5.7,2.5,12.7,2.5s12.7-1.1,12.7-2.5l0,0C70.3,72.9,74.7,61.4,75.6,58.8"/>
<path class="st2" d="M74.5,41.3c-1.8-7.7-8.7-13.5-16.9-13.5c-8.3,0-15.2,5.8-16.9,13.5c-3.3,1.7-5.5,5.1-5.5,9.1c0,3.7,2,7,4.9,8.8
	c0.3-0.2,0.7-0.3,1.1-0.3c0.5,0,0.9,0.1,1.2,0.3c0.1,0,0.2,0,0.3,0c4.6,0.1,9.1,0.5,13.7,0.4c5-0.1,9.3,1,14.4-0.4
	c0.1,0,0.3-0.1,0.4-0.1c0.4-0.3,0.8-0.5,1.4-0.5c0.8,0,1.4,0.3,1.8,0.8c3.4-1.7,5.7-5.2,5.7-9.2C80,46.4,77.8,43,74.5,41.3"/>
<path class="st0" d="M40.3,52.1c0-3.9,2.2-7.4,5.5-9.1c1.8-7.7,8.6-13.4,16.8-13.4c0.8,0,1.6,0.1,2.4,0.2c-2.6-1.5-5.5-2.4-8.7-2.4
	c-8.2,0-15.1,5.7-16.8,13.4C36.2,42.5,34,46,34,49.9c0,4.6,3.1,8.5,7.2,9.8c1.3,0.6,2.8,1,4.5,1.4C42.5,59.4,40.3,56,40.3,52.1"/>
<path class="st3" d="M49.8,72.3c0,0-3.8-9.9-5-13.3c-0.2,0.1-0.4,0.2-0.6,0.4c-1-0.7-2.3-1.1-3.8-1.1c-0.4,0-0.8,0-1.2,0.1
	c0.9,2.5,5.3,14,5.3,14c0,1.4,5.7,2.5,12.7,2.5c0.9,0,1.8,0,2.7-0.1C54.1,74.5,49.8,73.5,49.8,72.3"/>
<path class="st4" d="M75.8,40.3c-2.2-8.3-9.6-14-18.2-14s-16,5.7-18.2,14c-3.5,2.1-5.7,5.9-5.7,10.1c0,4.4,2.4,8.3,6.1,10.3
	c0-0.3,0-0.5,0.1-0.8c0.3-0.9,1-1.5,1.8-1.6c-3-1.4-4.9-4.5-4.9-7.9c0-3.3,1.8-6.3,4.7-7.8l0.6-0.3l0.2-0.7
	c1.7-7.3,8-12.3,15.5-12.3c7.4,0,13.8,5.1,15.5,12.3l0.2,0.7l0.6,0.3c2.9,1.5,4.7,4.5,4.7,7.8c0,3.7-2.3,7-5.8,8.2
	c1.4,0.1,2.1,1.2,2.1,2.3c4-1.9,6.6-6,6.6-10.6C81.5,46.2,79.3,42.4,75.8,40.3"/>
<path class="st4" d="M57.6,76.9c-5.1,0-13.1-0.5-14.2-3.6c-0.6-1.5-4.4-11.5-5.2-13.9l-0.6-1.7l1.8-0.3c1.8-0.3,3.7,0,5.2,0.8
	c2.5-1.3,5.9-1.1,8.3,0.4c1.3-0.8,2.8-1.3,4.4-1.3c1.6,0,3.2,0.5,4.4,1.3c2.4-1.6,6-1.7,8.6-0.2c1.6-0.9,3.7-1.3,5.6-1l1.8,0.3
	L77,59.3c-0.8,2.4-4.7,12.5-5.2,13.9C70.7,76.3,62.7,76.9,57.6,76.9 M46.3,72.4c0.9,0.6,4.8,1.5,11.3,1.5S68,73,68.9,72.4l0,0
	c0-0.1,3-7.9,4.6-12.1c-0.9,0.1-1.6,0.5-2.3,1L70.3,62l-0.9-0.7c-0.8-0.7-2-1-3.2-1c-1.3,0-2.6,0.5-3.4,1.3l-1,1l-1-1
	c-0.9-0.8-2.1-1.3-3.4-1.3s-2.6,0.5-3.4,1.3l-1,1l-1-1c-0.9-0.8-2.1-1.3-3.4-1.3c-1.1,0-2.1,0.3-3,0.9l-0.9,0.6l-0.9-0.6
	c-0.6-0.4-1.3-0.7-2-0.8C43.2,64.5,46.2,72.3,46.3,72.4L46.3,72.4z"/>
<path class="st5" d="M67.8,45c-0.4,0-0.7-0.2-0.9-0.5c-0.4-0.5-0.2-1.2,0.3-1.6l2.7-1.9c0.5-0.4,1.2-0.2,1.6,0.3s0.2,1.2-0.3,1.6
	l-2.7,1.9C68.3,44.9,68.1,45,67.8,45"/>
<path class="st5" d="M64.2,49c-0.1,0-0.3,0-0.4-0.1l-3-1.1c-0.6-0.2-0.9-0.9-0.7-1.5s0.9-0.9,1.5-0.7l3,1.1c0.6,0.2,0.9,0.9,0.7,1.5
	C65.1,48.7,64.7,49,64.2,49"/>
<path class="st5" d="M55.8,50.7c-0.5,0-1-0.3-1.1-0.9l-0.8-3.2c-0.2-0.6,0.2-1.2,0.8-1.4s1.2,0.2,1.4,0.8l0.8,3.2
	c0.2,0.6-0.2,1.2-0.8,1.4C55.9,50.7,55.9,50.7,55.8,50.7"/>
<path class="st5" d="M60.7,35.5c-0.2,0-0.4,0-0.6-0.2L57,33.5c-0.6-0.3-0.7-1-0.4-1.6s1-0.7,1.6-0.4l3.1,1.8c0.6,0.3,0.7,1,0.4,1.6
	C61.5,35.3,61.1,35.5,60.7,35.5"/>
<path class="st5" d="M47.8,42.3c-0.2,0-0.4-0.1-0.6-0.2l-2.4-1.4c-0.5-0.3-0.7-1-0.4-1.6c0.3-0.5,1-0.7,1.6-0.4l2.4,1.4
	c0.5,0.3,0.7,1,0.4,1.6C48.6,42.1,48.2,42.3,47.8,42.3"/>
<path class="st5" d="M52.9,41.3c-0.3,0-0.7-0.1-0.9-0.4c-0.4-0.5-0.3-1.2,0.2-1.6l2.5-2c0.5-0.4,1.2-0.3,1.6,0.2
	c0.4,0.5,0.3,1.2-0.2,1.6l-2.5,2C53.4,41.2,53.1,41.3,52.9,41.3"/>
<path class="st5" d="M60.7,43.2c-0.1,0-0.2,0-0.4-0.1c-0.6-0.2-0.9-0.9-0.7-1.5l0.9-2.6c0.2-0.6,0.8-0.9,1.5-0.7
	c0.6,0.2,0.9,0.9,0.7,1.5l-0.9,2.6C61.7,42.9,61.2,43.2,60.7,43.2"/>
<path class="st5" d="M45.1,49.9c-0.2,0-0.5-0.1-0.6-0.2L42,48c-0.5-0.4-0.7-1.1-0.3-1.6s1.1-0.7,1.6-0.3l2.5,1.7
	c0.5,0.4,0.7,1.1,0.3,1.6C45.8,49.7,45.4,49.9,45.1,49.9"/>
<path class="st5" d="M50.8,33c-0.7,0-1.3,0.6-1.3,1.3s0.6,1.3,1.3,1.3s1.3-0.6,1.3-1.3C52.2,33.6,51.6,33,50.8,33"/>
<path class="st5" d="M66.5,35.6c-0.7,0-1.3,0.6-1.3,1.3s0.6,1.3,1.3,1.3c0.7,0,1.3-0.6,1.3-1.3C67.8,36.2,67.2,35.6,66.5,35.6"/>
<path class="st5" d="M49.4,43.9c-0.7,0-1.3,0.6-1.3,1.3s0.6,1.3,1.3,1.3s1.3-0.6,1.3-1.3C50.8,44.5,50.2,43.9,49.4,43.9"/>
<path class="st5" d="M72,46.2c-0.7,0-1.3,0.6-1.3,1.3s0.6,1.3,1.3,1.3c0.7,0,1.3-0.6,1.3-1.3S72.7,46.2,72,46.2"/>
<path class="st6" d="M9.6,100.1H8.9c-0.4,0-0.7-0.3-0.6-0.7l1.9-10.7c0.1-0.8,0.7-1.3,1.5-1.4s1.6,0.4,1.9,1.2l1.9,4.8l1.9-4.8
	c0.3-0.8,1.1-1.3,1.9-1.2c0.8,0.1,1.4,0.7,1.5,1.5l1.9,10.7c0.1,0.4-0.2,0.7-0.6,0.7h-0.7c-0.3,0-0.6-0.2-0.7-0.6L18.9,90l-2.2,5.5
	c-0.2,0.4-0.5,0.8-1,0.9c-0.6,0.1-1.2-0.2-1.5-0.8L12,90l-1.7,9.5C10.2,99.8,9.9,100.1,9.6,100.1 M18.7,89L18.7,89L18.7,89z
	 M12.2,89L12.2,89L12.2,89"/>
<path class="st6" d="M26.9,100.1c-2-0.1-3.5-1.9-3.5-3.9v-4c0-0.4,0.3-0.7,0.7-0.7h0.7c0.4,0,0.7,0.3,0.7,0.7v4
	c0,0.9,0.7,1.7,1.6,1.8c1,0.1,1.9-0.7,1.9-1.7v-4.1c0-0.4,0.3-0.7,0.7-0.7h0.7c0.4,0,0.7,0.3,0.7,0.7v4.1
	C30.9,98.5,29.1,100.2,26.9,100.1"/>
<path class="st6" d="M90.1,100.1c-2-0.1-3.5-1.9-3.5-3.9v-4c0-0.4,0.3-0.7,0.7-0.7H88c0.4,0,0.7,0.3,0.7,0.7v4
	c0,0.9,0.7,1.7,1.6,1.8c1,0.1,1.9-0.7,1.9-1.7v-4.1c0-0.4,0.3-0.7,0.7-0.7h0.7c0.4,0,0.7,0.3,0.7,0.7v4.1
	C94.1,98.5,92.3,100.2,90.1,100.1"/>
<path class="st6" d="M54.5,100.1h-0.7c-0.4,0-0.7-0.3-0.7-0.7v-4c0-0.9-0.7-1.7-1.6-1.8c-1-0.1-1.9,0.7-1.9,1.7v4.1
	c0,0.4-0.3,0.7-0.7,0.7h-0.7c-0.4,0-0.7-0.3-0.7-0.7v-4c0-2,1.5-3.8,3.5-3.9c2.2-0.1,4.1,1.6,4.1,3.8v4.1
	C55.2,99.8,54.9,100.1,54.5,100.1"/>
<path class="st6" d="M41.6,89.3h0.3c0.4,0,0.7-0.3,0.7-0.7v-0.7c0-0.4-0.3-0.7-0.7-0.7h-0.3c-1.7,0-3.1,1.4-3.1,3.1v1.2h-1.3h-2.6
	v-1.2c0-0.6,0.5-1.1,1.1-1.1H36c0.4,0,0.7-0.3,0.7-0.7v-0.7c0-0.4-0.3-0.7-0.7-0.7h-0.3c-1.7,0-3.1,1.4-3.1,3.1v1.2l0,0v2l0,0v5.9
	c0,0.4,0.3,0.7,0.7,0.7H34c0.4,0,0.7-0.3,0.7-0.7v-5.9h2.6h1.3v5.9c0,0.4,0.3,0.7,0.7,0.7H40c0.4,0,0.7-0.3,0.7-0.7v-5.9h1.4
	c0.4,0,0.7-0.3,0.7-0.7V92c0-0.4-0.3-0.7-0.7-0.7h-1.4v-1.2C40.5,89.7,41,89.3,41.6,89.3"/>
<path class="st6" d="M45.2,100.1h-0.7c-0.4,0-0.7-0.3-0.7-0.7v-7.2c0-0.4,0.3-0.7,0.7-0.7h0.7c0.4,0,0.7,0.3,0.7,0.7v7.2
	C45.9,99.8,45.6,100.1,45.2,100.1"/>
<path class="st6" d="M65.5,100.1c-3.7,0-6.7-3.2-6.4-7c0.2-2.8,2.3-5.2,5.1-5.8c2.1-0.4,4.2,0.2,5.7,1.6l0.3,0.3
	c0.2,0.2,0.3,0.6,0,0.8l-0.6,0.6c-0.2,0.2-0.6,0.3-0.8,0l-0.2-0.2c-0.7-0.6-1.5-1.1-2.4-1.2c-3-0.4-5.5,2.1-5,5.1
	c0.3,1.8,1.7,3.2,3.4,3.5c1.5,0.3,3.1-0.2,4.1-1.3V95h-2.2c-0.4,0-0.7-0.3-0.7-0.7v-0.7c0-0.4,0.3-0.7,0.7-0.7h3.6
	c0.4,0,0.7,0.3,0.7,0.7v3.1c0,0.4-0.1,0.7-0.4,1C69.7,98.7,68.1,100.1,65.5,100.1"/>
<path class="st6" d="M75.5,91.5c-2,0-3.6,1.6-3.6,3.6v4.3c0,0.4,0.3,0.7,0.7,0.7h0.7c0.4,0,0.7-0.3,0.7-0.7v-4.3
	c0-0.8,0.7-1.5,1.5-1.5h0.6c0.4,0,0.7-0.3,0.7-0.7v-0.7c0-0.4-0.3-0.7-0.7-0.7C76.1,91.5,75.5,91.5,75.5,91.5z"/>
<path class="st6" d="M81.3,100.1c-2.4,0-4.3-1.9-4.3-4.3s1.9-4.3,4.3-4.3s4.3,1.9,4.3,4.3C85.6,98.2,83.7,100.1,81.3,100.1
	 M81.3,93.6c-1.2,0-2.3,1-2.3,2.3c0,1.2,1,2.3,2.3,2.3c1.2,0,2.3-1,2.3-2.3C83.6,94.6,82.5,93.6,81.3,93.6"/>
<path class="st6" d="M99.3,91.5c-2.3,0.1-4,2.1-4,4.4v6c0,0.9,0.3,1.2,0.7,1.2h0.7c0.4,0,0.7-0.3,0.7-0.7v-3c0.9,0.6,2,0.8,3.2,0.6
	c1.7-0.3,3-1.7,3.3-3.3C104.3,93.8,102.1,91.3,99.3,91.5 M99.6,98.1c-1.2,0-2.3-1-2.3-2.3c0-1.2,1-2.3,2.3-2.3c1.2,0,2.3,1,2.3,2.3
	C101.8,97,100.8,98.1,99.6,98.1"/>
<path class="st2" d="M46,89.1c0,0.6-0.5,1.1-1.1,1.1s-1.1-0.5-1.1-1.1s0.5-1.1,1.1-1.1S46,88.5,46,89.1"/>
</svg>
