<?xml version="1.0" encoding="utf-8"?>
<!-- Generator: Adobe Illustrator 22.0.1, SVG Export Plug-In . SVG Version: 6.00 Build 0)  -->
<svg version="1.1" id="Warstwa_1" xmlns="http://www.w3.org/2000/svg" xmlns:xlink="http://www.w3.org/1999/xlink" x="0px" y="0px"
	 viewBox="0 0 160 50" style="enable-background:new 0 0 160 50;" xml:space="preserve">
<g>
	<g>
		<ellipse style="fill:#9AF4E3;" cx="28" cy="45.7" rx="13.7" ry="3.4"/>
		<path style="fill:#09BA98;" d="M40.6,34.4c-0.3,0-0.5-0.1-0.8-0.1c-1.1,0-2.1,0.4-2.9,0.9c-0.7-0.6-1.7-0.9-2.8-0.9
			c-1.2,0-2.3,0.5-3.1,1.2c-0.7-0.7-1.8-1.2-3.1-1.2c-1.2,0-2.3,0.5-3.1,1.2c-0.7-0.7-1.8-1.2-3.1-1.2c-1,0-1.9,0.3-2.6,0.8
			c-0.7-0.5-1.6-0.8-2.6-0.8c-0.3,0-0.6,0-0.8,0.1c0.6,1.8,3.6,9.7,3.6,9.7c0,0.9,3.9,1.7,8.8,1.7s8.8-0.8,8.8-1.7c0,0,0,0,0,0l0,0
			C36.9,44.1,40,36.2,40.6,34.4z"/>
		<path style="fill:#35EDCA;" d="M39.8,22.3c-1.2-5.3-6-9.3-11.7-9.3c-5.7,0-10.5,4-11.7,9.3c-2.3,1.2-3.8,3.5-3.8,6.3
			c0,2.6,1.4,4.8,3.4,6c0.2-0.1,0.5-0.2,0.8-0.2c0.3,0,0.6,0.1,0.8,0.2c0.1,0,0.1,0,0.2,0c3.2,0.1,6.3,0.4,9.4,0.3
			c3.5-0.1,6.4,0.7,9.9-0.2c0.1,0,0.2,0,0.3-0.1c0.3-0.2,0.6-0.3,1-0.3c0.6,0,1,0.2,1.2,0.6c2.3-1.2,3.9-3.6,3.9-6.3
			C43.6,25.9,42.1,23.5,39.8,22.3z"/>
		<path style="fill:#9AF4E3;" d="M16.2,29.8c0-2.7,1.5-5.1,3.8-6.2c1.2-5.3,5.9-9.3,11.6-9.3c0.6,0,1.1,0.1,1.7,0.1
			c-1.8-1-3.8-1.6-6-1.6c-5.7,0-10.4,4-11.6,9.3c-2.3,1.2-3.8,3.5-3.8,6.2c0,3.2,2.1,5.9,5,6.7c0.9,0.4,1.9,0.7,3.1,1
			C17.8,34.8,16.2,32.5,16.2,29.8z"/>
		<g>
			<path style="fill:#2BCCAD;" d="M22.8,43.7c0,0-2.6-6.8-3.5-9.2c-0.2,0.1-0.3,0.2-0.4,0.3c-0.7-0.5-1.6-0.8-2.6-0.8
				c-0.3,0-0.6,0-0.8,0.1c0.6,1.8,3.6,9.7,3.6,9.7c0,0.9,3.9,1.7,8.7,1.7c0.6,0,1.3,0,1.8,0C25.8,45.2,22.8,44.5,22.8,43.7z"/>
		</g>
		<path style="fill:#0C6856;" d="M40.7,21.6c-1.5-5.7-6.6-9.7-12.6-9.7s-11.1,3.9-12.6,9.7c-2.4,1.5-3.9,4.1-3.9,7
			c0,3,1.6,5.7,4.2,7.1c0-0.2,0-0.4,0-0.5c0.2-0.7,0.7-1,1.2-1.1c-2.1-1-3.4-3.1-3.4-5.4c0-2.3,1.2-4.3,3.3-5.4l0.4-0.2l0.1-0.5
			c1.1-5,5.5-8.5,10.7-8.5s9.5,3.5,10.7,8.5l0.1,0.5l0.4,0.2c2,1,3.3,3.1,3.3,5.4c0,2.6-1.6,4.8-4,5.7c1,0.1,1.4,0.8,1.5,1.6
			c2.8-1.3,4.6-4.1,4.6-7.3C44.7,25.7,43.2,23.1,40.7,21.6z"/>
		<path style="fill:#0C6856;" d="M28.2,46.9c-3.5,0-9-0.4-9.8-2.5c-0.4-1-3-8-3.6-9.6l-0.4-1.2l1.2-0.2c1.2-0.2,2.5,0,3.6,0.5
			c1.7-0.9,4.1-0.8,5.7,0.3c0.9-0.6,2-0.9,3.1-0.9c1.1,0,2.2,0.3,3.1,0.9c1.7-1.1,4.2-1.1,5.9-0.2c1.1-0.6,2.5-0.9,3.8-0.7l1.2,0.2
			l-0.4,1.2c-0.6,1.7-3.2,8.6-3.6,9.6C37.2,46.5,31.7,46.9,28.2,46.9z M20.4,43.8c0.6,0.4,3.3,1,7.8,1c4.5,0,7.2-0.6,7.8-1l0,0
			c0-0.1,2.1-5.5,3.1-8.3c-0.6,0.1-1.1,0.3-1.6,0.7l-0.6,0.5l-0.6-0.5c-0.6-0.5-1.4-0.7-2.2-0.7c-0.9,0-1.8,0.3-2.4,0.9L31,37
			l-0.7-0.7c-0.6-0.6-1.4-0.9-2.4-0.9c-0.9,0-1.8,0.3-2.4,0.9L24.9,37l-0.7-0.7c-0.6-0.6-1.4-0.9-2.4-0.9c-0.7,0-1.5,0.2-2,0.6
			l-0.6,0.4L18.6,36c-0.4-0.3-0.9-0.5-1.4-0.6C18.3,38.3,20.3,43.7,20.4,43.8L20.4,43.8z"/>
		<path style="fill:#BBFFF2;" d="M35.2,24.9c-0.2,0-0.5-0.1-0.6-0.3c-0.3-0.4-0.2-0.9,0.2-1.1l1.8-1.3c0.4-0.3,0.9-0.2,1.1,0.2
			c0.3,0.4,0.2,0.9-0.2,1.1l-1.8,1.3C35.6,24.8,35.4,24.9,35.2,24.9z"/>
		<path style="fill:#BBFFF2;" d="M32.7,27.7c-0.1,0-0.2,0-0.3-0.1l-2.1-0.8c-0.4-0.2-0.6-0.6-0.5-1c0.2-0.4,0.6-0.6,1-0.5l2.1,0.8
			c0.4,0.2,0.6,0.6,0.5,1C33.4,27.5,33.1,27.7,32.7,27.7z"/>
		<path style="fill:#BBFFF2;" d="M26.9,28.8c-0.4,0-0.7-0.2-0.8-0.6l-0.6-2.2c-0.1-0.4,0.1-0.9,0.6-1c0.4-0.1,0.9,0.1,1,0.6l0.6,2.2
			c0.1,0.4-0.1,0.9-0.6,1C27,28.8,27,28.8,26.9,28.8z"/>
		<path style="fill:#BBFFF2;" d="M39.1,13.2c-1.3,0-2.4-1.1-2.4-2.4s1.1-2.4,2.4-2.4c1.3,0,2.4,1.1,2.4,2.4S40.4,13.2,39.1,13.2z
			 M39.1,10c-0.4,0-0.8,0.4-0.8,0.8c0,0.4,0.4,0.8,0.8,0.8s0.8-0.4,0.8-0.8C39.9,10.3,39.5,10,39.1,10z"/>
		<path style="fill:#BBFFF2;" d="M30.3,18.3c-0.1,0-0.3,0-0.4-0.1L27.8,17c-0.4-0.2-0.5-0.7-0.3-1.1c0.2-0.4,0.7-0.5,1.1-0.3
			l2.2,1.2c0.4,0.2,0.5,0.7,0.3,1.1C30.9,18.2,30.6,18.3,30.3,18.3z"/>
		<path style="fill:#BBFFF2;" d="M21.4,23c-0.1,0-0.3,0-0.4-0.1l-1.7-1c-0.4-0.2-0.5-0.7-0.3-1.1c0.2-0.4,0.7-0.5,1.1-0.3l1.7,1
			c0.4,0.2,0.5,0.7,0.3,1.1C22,22.9,21.7,23,21.4,23z"/>
		<path style="fill:#BBFFF2;" d="M24.9,22.3c-0.2,0-0.5-0.1-0.6-0.3c-0.3-0.3-0.2-0.8,0.1-1.1l1.7-1.3c0.3-0.3,0.8-0.2,1.1,0.1
			c0.3,0.3,0.2,0.8-0.1,1.1l-1.7,1.3C25.3,22.3,25.1,22.3,24.9,22.3z"/>
		<path style="fill:#BBFFF2;" d="M30.3,23.6c-0.1,0-0.2,0-0.3,0c-0.4-0.1-0.6-0.6-0.5-1l0.6-1.8c0.1-0.4,0.6-0.6,1-0.5
			c0.4,0.1,0.6,0.6,0.5,1l-0.6,1.8C31,23.4,30.7,23.6,30.3,23.6z"/>
		<path style="fill:#BBFFF2;" d="M19.5,28.3c-0.2,0-0.3,0-0.4-0.1L17.4,27c-0.4-0.2-0.5-0.7-0.2-1.1c0.2-0.4,0.7-0.5,1.1-0.2
			l1.7,1.2c0.4,0.2,0.5,0.7,0.2,1.1C20,28.1,19.8,28.3,19.5,28.3z"/>
		<path style="fill:none;stroke:#BBFFF2;stroke-width:2.134;stroke-linecap:round;stroke-linejoin:round;stroke-miterlimit:10;" d="
			M28,15.9"/>
		<path style="fill:#35EDCA;" d="M5.9,20.2c-0.2,0-0.4-0.1-0.6-0.3c-0.2-0.2-0.2-0.4-0.2-0.7L5.9,16c0.1-0.4,0.5-0.7,0.9-0.6
			c0.4,0.1,0.7,0.5,0.6,0.9l-0.5,2.2l2.3-0.2c0.4,0,0.8,0.3,0.9,0.7c0,0.4-0.3,0.8-0.7,0.9L5.9,20.2C5.9,20.2,5.9,20.2,5.9,20.2z"/>
		<path style="fill:#35EDCA;" d="M15,14.9c-0.1,0-0.1,0-0.2,0c-0.4-0.1-0.7-0.5-0.6-0.9l0.5-2.2l-2.3,0.2c-0.4,0-0.8-0.3-0.9-0.7
			c0-0.4,0.3-0.8,0.7-0.9l3.3-0.3c0.3,0,0.5,0.1,0.7,0.3c0.2,0.2,0.2,0.4,0.2,0.7l-0.7,3.3C15.7,14.7,15.4,14.9,15,14.9z"/>
		<path style="fill:#35EDCA;" d="M11.3,17.7c-0.3,0-0.6-0.2-0.7-0.5L9.3,14c-0.2-0.4,0-0.9,0.4-1c0.4-0.2,0.9,0,1,0.4l1.3,3.3
			c0.2,0.4,0,0.9-0.4,1C11.5,17.7,11.4,17.7,11.3,17.7z"/>
		<path style="fill:#BBFFF2;" d="M47.7,40.9c-0.3,0-0.6-0.2-0.8-0.5c-0.1-0.4,0.1-0.9,0.5-1l2.2-0.7l-1.3-1.8
			c-0.3-0.4-0.2-0.9,0.2-1.1c0.4-0.3,0.9-0.2,1.1,0.2l2,2.7c0.1,0.2,0.2,0.5,0.1,0.7c-0.1,0.2-0.3,0.4-0.5,0.5L48,40.9
			C47.9,40.9,47.8,40.9,47.7,40.9z"/>
		<path style="fill:#BBFFF2;" d="M43.9,39.3c-0.2,0-0.3-0.1-0.5-0.2C43,38.9,43,38.4,43.2,38l2.1-2.8c0.3-0.3,0.8-0.4,1.1-0.1
			c0.3,0.3,0.4,0.8,0.1,1.1L44.5,39C44.3,39.2,44.1,39.3,43.9,39.3z"/>
		<path style="fill:#BBFFF2;" d="M5.9,38.2c-0.1,0-0.1,0-0.2,0c-0.2,0-0.4-0.2-0.5-0.3l-2.7-4.2c-0.1-0.2-0.2-0.4-0.1-0.6
			c0-0.2,0.2-0.4,0.3-0.5L4,31.8c0.4-0.2,0.9-0.1,1.1,0.2c0.2,0.4,0.1,0.9-0.2,1.1l-0.5,0.3l1.8,2.8l0.5-0.3
			c0.4-0.2,0.9-0.1,1.1,0.2C8,36.5,7.9,37,7.5,37.3L6.4,38C6.2,38.1,6.1,38.2,5.9,38.2z"/>
		<path style="fill:#BBFFF2;" d="M9.1,36.1c-0.3,0-0.5-0.1-0.7-0.4c-0.2-0.4-0.1-0.9,0.2-1.1l0.5-0.3l-1.8-2.8l-0.5,0.3
			C6.5,32,6,31.9,5.8,31.6c-0.2-0.4-0.1-0.9,0.2-1.1l1.2-0.8c0.2-0.1,0.4-0.2,0.6-0.1c0.2,0,0.4,0.2,0.5,0.3l2.7,4.2
			c0.2,0.4,0.1,0.9-0.2,1.1L9.6,36C9.4,36.1,9.3,36.1,9.1,36.1z"/>
		<path style="fill:#BBFFF2;" d="M27,9.8c-0.2,0-0.4-0.1-0.5-0.2l-3.8-3.2c-0.3-0.3-0.4-0.8-0.1-1.1l0.9-1.1
			c0.3-0.3,0.8-0.4,1.1-0.1C25,4.4,25,4.9,24.7,5.2l-0.4,0.5l2.6,2.2l0.4-0.5c0.3-0.3,0.8-0.4,1.1-0.1c0.3,0.3,0.4,0.8,0.1,1.1
			l-0.9,1.1C27.5,9.7,27.3,9.8,27,9.8C27,9.8,27,9.8,27,9.8z"/>
		<path style="fill:#BBFFF2;" d="M29.5,6.9c-0.2,0-0.4-0.1-0.5-0.2c-0.3-0.3-0.4-0.8-0.1-1.1l0.4-0.5l-2.6-2.2l-0.4,0.5
			c-0.3,0.3-0.8,0.4-1.1,0.1c-0.3-0.3-0.4-0.8-0.1-1.1L26,1.3C26.1,1.1,26.3,1,26.6,1c0.2,0,0.4,0.1,0.6,0.2l3.8,3.2
			c0.3,0.3,0.4,0.8,0.1,1.1l-0.9,1.1C29.9,6.8,29.7,6.9,29.5,6.9z"/>
		<path style="fill:#35EDCA;" d="M44.8,21.3c-0.2,0-0.4-0.1-0.5-0.2l-0.4-0.4c-0.3-0.3-0.5-0.6-0.5-1c0-0.4,0.1-0.9,0.5-1.2l0.3-0.3
			c0.2-0.2,0.3-0.4,0.3-0.6l0.1-0.5c0.1-0.3,0.3-0.6,0.6-0.7l0.3-0.1c0.2,0,0.5-0.2,0.7-0.4l0.2-0.2c0.6-0.7,1.6-0.8,2.3-0.2
			l0.4,0.4c0.3,0.3,0.3,0.8,0.1,1.1c-0.3,0.3-0.8,0.3-1.1,0.1l-0.4-0.4c0,0,0,0-0.1,0L47.3,17c-0.4,0.4-0.8,0.7-1.3,0.8
			c-0.1,0.5-0.3,1-0.7,1.4L45,19.5c0,0,0,0,0,0.1l0.4,0.4c0.3,0.3,0.3,0.8,0.1,1.1C45.3,21.2,45,21.3,44.8,21.3z"/>
		<path style="fill:#35EDCA;" d="M47.5,23.5c-0.4,0-0.7-0.1-1-0.4l-0.4-0.4c-0.3-0.3-0.3-0.8-0.1-1.1c0.3-0.3,0.8-0.3,1.1-0.1
			l0.4,0.4c0,0,0,0,0.1,0l0.2-0.2c0.4-0.4,0.8-0.7,1.3-0.8c0.1-0.5,0.3-1,0.7-1.4l0.3-0.3c0,0,0,0,0-0.1l-0.4-0.4
			c-0.3-0.3-0.3-0.8-0.1-1.1s0.8-0.3,1.1-0.1l0.4,0.4c0.3,0.3,0.5,0.7,0.5,1.1c0,0.4-0.2,0.8-0.5,1.1L51,20.5
			c-0.2,0.2-0.3,0.4-0.3,0.6l-0.1,0.5c-0.1,0.3-0.3,0.6-0.6,0.7l-0.3,0.1c-0.2,0-0.5,0.2-0.7,0.4L48.8,23
			C48.4,23.3,48,23.5,47.5,23.5z M50.2,19.1L50.2,19.1L50.2,19.1z"/>
		<path style="fill:#BBFFF2;" d="M23.5,16.6c-0.5,0-0.9,0.4-0.9,0.9c0,0.5,0.4,0.9,0.9,0.9c0.5,0,0.9-0.4,0.9-0.9
			C24.4,17,24,16.6,23.5,16.6z"/>
		<path style="fill:#BBFFF2;" d="M34.3,18.4c-0.5,0-0.9,0.4-0.9,0.9c0,0.5,0.4,0.9,0.9,0.9c0.5,0,0.9-0.4,0.9-0.9
			C35.2,18.8,34.8,18.4,34.3,18.4z"/>
		<path style="fill:#BBFFF2;" d="M22.5,24.2c-0.5,0-0.9,0.4-0.9,0.9c0,0.5,0.4,0.9,0.9,0.9c0.5,0,0.9-0.4,0.9-0.9
			C23.5,24.6,23,24.2,22.5,24.2z"/>
		<path style="fill:#BBFFF2;" d="M38.1,25.7c-0.5,0-0.9,0.4-0.9,0.9c0,0.5,0.4,0.9,0.9,0.9c0.5,0,0.9-0.4,0.9-0.9
			C39,26.1,38.6,25.7,38.1,25.7z"/>
	</g>
	<g>
		<g>
			<g>
				<path style="fill:#FFFFFF;" d="M59.4,34.4h-0.7c-0.4,0-0.7-0.4-0.6-0.7L60,22.8c0.1-0.8,0.8-1.4,1.6-1.5
					c0.8-0.1,1.6,0.4,1.9,1.2l1.9,4.8l1.9-4.8c0.3-0.8,1.1-1.3,1.9-1.2c0.8,0.1,1.4,0.7,1.6,1.5l1.9,10.9c0.1,0.4-0.2,0.7-0.6,0.7
					h-0.7c-0.4,0-0.7-0.3-0.7-0.6l-1.7-9.7l-2.2,5.6c-0.2,0.4-0.6,0.8-1,0.9c-0.7,0.1-1.3-0.2-1.5-0.8l-2.3-5.7l-1.7,9.7
					C60.1,34.2,59.8,34.4,59.4,34.4z M68.7,23.1C68.7,23.1,68.7,23.1,68.7,23.1L68.7,23.1z M62.1,23.1L62.1,23.1
					C62.1,23.1,62.1,23.1,62.1,23.1z"/>
				<path style="fill:#FFFFFF;" d="M77.1,34.4c-2.1-0.1-3.6-1.9-3.6-4v-4.1c0-0.4,0.3-0.7,0.7-0.7h0.7c0.4,0,0.7,0.3,0.7,0.7v4.1
					c0,0.9,0.7,1.8,1.6,1.9c1.1,0.1,2-0.7,2-1.8v-4.2c0-0.4,0.3-0.7,0.7-0.7h0.7c0.4,0,0.7,0.3,0.7,0.7v4.2
					C81.2,32.8,79.3,34.6,77.1,34.4z"/>
				<path style="fill:#FFFFFF;" d="M141.5,34.4c-2.1-0.1-3.6-1.9-3.6-4v-4c0-0.4,0.3-0.7,0.7-0.7h0.7c0.4,0,0.7,0.3,0.7,0.7v4.1
					c0,0.9,0.7,1.8,1.6,1.9c1.1,0.1,2-0.7,2-1.8v-4.2c0-0.4,0.3-0.7,0.7-0.7h0.7c0.4,0,0.7,0.3,0.7,0.7v4.2
					C145.6,32.8,143.7,34.6,141.5,34.4z"/>
				<path style="fill:#FFFFFF;" d="M105.3,34.4h-0.7c-0.4,0-0.7-0.3-0.7-0.7v-4.1c0-0.9-0.7-1.8-1.6-1.9c-1.1-0.1-2,0.7-2,1.8v4.2
					c0,0.4-0.3,0.7-0.7,0.7h-0.7c-0.4,0-0.7-0.3-0.7-0.7l0-4c0-2.1,1.6-3.9,3.6-4c2.3-0.2,4.1,1.6,4.1,3.9v4.2
					C106,34.1,105.7,34.4,105.3,34.4z"/>
				<path style="fill:#FFFFFF;" d="M92.1,23.4h0.3c0.4,0,0.7-0.3,0.7-0.7V22c0-0.4-0.3-0.7-0.7-0.7h-0.3c-1.8,0-3.2,1.4-3.2,3.2v1.2
					h-1.4h-2.7v-1.2c0-0.6,0.5-1.1,1.1-1.1h0.3c0.4,0,0.7-0.3,0.7-0.7V22c0-0.4-0.3-0.7-0.7-0.7H86c-1.8,0-3.2,1.4-3.2,3.2v1.2h0
					v2.1h0v6c0,0.4,0.3,0.7,0.7,0.7h0.7c0.4,0,0.7-0.3,0.7-0.7v-6h2.7h1.4v6c0,0.4,0.3,0.7,0.7,0.7h0.7c0.4,0,0.7-0.3,0.7-0.7v-6
					h1.4c0.4,0,0.7-0.3,0.7-0.7v-0.7c0-0.4-0.3-0.7-0.7-0.7H91v-1.2C91,23.9,91.5,23.4,92.1,23.4z"/>
				<path style="fill:#FFFFFF;" d="M95.8,34.4h-0.7c-0.4,0-0.7-0.3-0.7-0.7v-7.3c0-0.4,0.3-0.7,0.7-0.7h0.7c0.4,0,0.7,0.3,0.7,0.7
					v7.3C96.5,34.1,96.1,34.4,95.8,34.4z"/>
				<path style="fill:#304051;" d="M95.4,23.8"/>
				<path style="fill:#FFFFFF;" d="M116.4,34.4c-3.8,0-6.9-3.2-6.5-7.1c0.2-2.9,2.4-5.3,5.2-5.9c2.1-0.4,4.3,0.2,5.8,1.6l0.3,0.3
					c0.2,0.2,0.3,0.6,0,0.8l-0.6,0.7c-0.2,0.2-0.6,0.3-0.8,0l-0.2-0.2c-0.7-0.6-1.5-1.1-2.5-1.2c-3-0.4-5.6,2.2-5.1,5.2
					c0.3,1.8,1.7,3.3,3.5,3.6c1.6,0.3,3.1-0.2,4.2-1.3v-1.6h-2.2c-0.4,0-0.7-0.3-0.7-0.7V28c0-0.4,0.3-0.7,0.7-0.7h3.6
					c0.4,0,0.7,0.3,0.7,0.7v3.2c0,0.4-0.1,0.7-0.4,1C120.7,32.9,119.1,34.4,116.4,34.4z"/>
				<path style="fill:#FFFFFF;" d="M126.6,25.7c-2,0-3.6,1.6-3.6,3.6v4.4c0,0.4,0.3,0.7,0.7,0.7h0.7c0.4,0,0.7-0.3,0.7-0.7v-4.4
					c0-0.9,0.7-1.6,1.6-1.6h0.6c0.4,0,0.7-0.3,0.7-0.7v-0.7c0-0.4-0.3-0.7-0.7-0.7H126.6z"/>
				<path style="fill:#FFFFFF;" d="M132.5,34.4c-2.4,0-4.4-2-4.4-4.4s2-4.4,4.4-4.4c2.4,0,4.4,2,4.4,4.4S134.9,34.4,132.5,34.4z
					 M132.5,27.7c-1.3,0-2.3,1-2.3,2.3c0,1.3,1,2.3,2.3,2.3c1.3,0,2.3-1,2.3-2.3C134.8,28.8,133.8,27.7,132.5,27.7z"/>
				<path style="fill:#FFFFFF;" d="M150.9,25.7c-2.3,0.1-4.1,2.2-4.1,4.5v6.2c0,0.9,0.3,1.2,0.7,1.2h0.7c0.4,0,0.7-0.3,0.7-0.7v-3.1
					c0.9,0.6,2,0.8,3.2,0.6c1.7-0.4,3-1.7,3.4-3.4C156,28,153.7,25.5,150.9,25.7z M151.1,32.3c-1.3,0-2.3-1-2.3-2.3
					c0-1.3,1-2.3,2.3-2.3c1.3,0,2.3,1,2.3,2.3C153.4,31.3,152.4,32.3,151.1,32.3z"/>
				<circle style="fill:#35EDCA;" cx="95.4" cy="23.2" r="1.2"/>
			</g>
		</g>
	</g>
</g>
</svg>
